<mxfile host="app.diagrams.net" modified="2024-06-25T02:38:07.186Z" agent="Mozilla/5.0 (Windows NT 10.0; Win64; x64) AppleWebKit/537.36 (KHTML, like Gecko) Chrome/126.0.0.0 Safari/537.36 Edg/126.0.0.0" etag="ue4MkFW5fgaxiZVQlhfv" version="24.6.2" type="github">
  <diagram name="Page-1" id="0783ab3e-0a74-02c8-0abd-f7b4e66b4bec">
    <mxGraphModel dx="1678" dy="945" grid="1" gridSize="10" guides="1" tooltips="1" connect="1" arrows="1" fold="1" page="1" pageScale="1" pageWidth="850" pageHeight="1100" background="none" math="0" shadow="0">
      <root>
        <mxCell id="0" />
        <mxCell id="1" parent="0" />
        <mxCell id="1c1d494c118603dd-1" value="服务调用流程" style="swimlane;html=1;childLayout=stackLayout;startSize=20;rounded=0;shadow=0;comic=0;labelBackgroundColor=none;strokeWidth=1;fontFamily=Verdana;fontSize=12;align=center;fillColor=#dae8fc;strokeColor=#6c8ebf;" parent="1" vertex="1">
          <mxGeometry x="40" y="20" width="830" height="600" as="geometry" />
        </mxCell>
        <mxCell id="1c1d494c118603dd-2" value="华康BIP" style="swimlane;html=1;startSize=20;fillColor=#f5f5f5;fontColor=#333333;strokeColor=#666666;" parent="1c1d494c118603dd-1" vertex="1">
          <mxGeometry y="20" width="580" height="580" as="geometry">
            <mxRectangle y="20" width="40" height="490" as="alternateBounds" />
          </mxGeometry>
        </mxCell>
        <mxCell id="GXR5rZHoVhnLlK48RY9E-45" style="edgeStyle=orthogonalEdgeStyle;rounded=0;orthogonalLoop=1;jettySize=auto;html=1;exitX=1;exitY=1;exitDx=0;exitDy=0;entryX=0;entryY=0.75;entryDx=0;entryDy=0;" edge="1" parent="1c1d494c118603dd-2">
          <mxGeometry relative="1" as="geometry">
            <mxPoint x="160" y="270" as="sourcePoint" />
            <mxPoint x="390" y="260" as="targetPoint" />
            <Array as="points">
              <mxPoint x="160" y="260" />
            </Array>
          </mxGeometry>
        </mxCell>
        <mxCell id="GXR5rZHoVhnLlK48RY9E-46" value="刷新token" style="edgeLabel;html=1;align=center;verticalAlign=middle;resizable=0;points=[];" vertex="1" connectable="0" parent="GXR5rZHoVhnLlK48RY9E-45">
          <mxGeometry x="-0.0944" y="2" relative="1" as="geometry">
            <mxPoint as="offset" />
          </mxGeometry>
        </mxCell>
        <mxCell id="GXR5rZHoVhnLlK48RY9E-67" style="edgeStyle=orthogonalEdgeStyle;rounded=0;orthogonalLoop=1;jettySize=auto;html=1;exitX=0;exitY=0.5;exitDx=0;exitDy=0;entryX=0;entryY=0.5;entryDx=0;entryDy=0;" edge="1" parent="1c1d494c118603dd-2" source="1c1d494c118603dd-10" target="GXR5rZHoVhnLlK48RY9E-57">
          <mxGeometry relative="1" as="geometry" />
        </mxCell>
        <mxCell id="1c1d494c118603dd-10" value="请求token" style="rounded=0;whiteSpace=wrap;html=1;shadow=0;comic=0;labelBackgroundColor=none;strokeWidth=1;fontFamily=Verdana;fontSize=12;align=center;arcSize=50;" parent="1c1d494c118603dd-2" vertex="1">
          <mxGeometry x="80" y="120" width="80" height="40" as="geometry" />
        </mxCell>
        <mxCell id="GXR5rZHoVhnLlK48RY9E-42" style="edgeStyle=orthogonalEdgeStyle;rounded=0;orthogonalLoop=1;jettySize=auto;html=1;exitX=0;exitY=0.5;exitDx=0;exitDy=0;entryX=0.5;entryY=0;entryDx=0;entryDy=0;" edge="1" parent="1c1d494c118603dd-2" source="GXR5rZHoVhnLlK48RY9E-40" target="1c1d494c118603dd-10">
          <mxGeometry relative="1" as="geometry" />
        </mxCell>
        <mxCell id="1c1d494c118603dd-3" value="昆船wms前置服务" style="swimlane;html=1;startSize=20;fillColor=#f5f5f5;fontColor=#333333;strokeColor=#666666;" parent="1c1d494c118603dd-2" vertex="1">
          <mxGeometry x="290" width="290" height="580" as="geometry" />
        </mxCell>
        <mxCell id="GXR5rZHoVhnLlK48RY9E-35" value="前置服务" style="rounded=0;whiteSpace=wrap;html=1;" vertex="1" parent="1c1d494c118603dd-3">
          <mxGeometry x="100" y="120" width="75" height="40" as="geometry" />
        </mxCell>
        <mxCell id="GXR5rZHoVhnLlK48RY9E-40" value="返回access_token和refresh_token" style="rounded=1;whiteSpace=wrap;html=1;" vertex="1" parent="1c1d494c118603dd-3">
          <mxGeometry x="-50" y="60" width="100" height="40" as="geometry" />
        </mxCell>
        <mxCell id="GXR5rZHoVhnLlK48RY9E-41" style="edgeStyle=orthogonalEdgeStyle;rounded=0;orthogonalLoop=1;jettySize=auto;html=1;exitX=0.5;exitY=0;exitDx=0;exitDy=0;entryX=1;entryY=0.5;entryDx=0;entryDy=0;" edge="1" parent="1c1d494c118603dd-3" source="GXR5rZHoVhnLlK48RY9E-35" target="GXR5rZHoVhnLlK48RY9E-40">
          <mxGeometry relative="1" as="geometry" />
        </mxCell>
        <mxCell id="GXR5rZHoVhnLlK48RY9E-54" style="edgeStyle=orthogonalEdgeStyle;rounded=0;orthogonalLoop=1;jettySize=auto;html=1;exitX=0.5;exitY=1;exitDx=0;exitDy=0;entryX=1;entryY=0.5;entryDx=0;entryDy=0;" edge="1" parent="1c1d494c118603dd-3" source="GXR5rZHoVhnLlK48RY9E-48" target="GXR5rZHoVhnLlK48RY9E-53">
          <mxGeometry relative="1" as="geometry" />
        </mxCell>
        <mxCell id="GXR5rZHoVhnLlK48RY9E-48" value="前置服务" style="rounded=0;whiteSpace=wrap;html=1;" vertex="1" parent="1c1d494c118603dd-3">
          <mxGeometry x="100" y="240" width="75" height="40" as="geometry" />
        </mxCell>
        <mxCell id="GXR5rZHoVhnLlK48RY9E-53" value="返回新的access_token和refresh_token" style="rounded=1;whiteSpace=wrap;html=1;" vertex="1" parent="1c1d494c118603dd-3">
          <mxGeometry x="-50" y="320" width="100" height="40" as="geometry" />
        </mxCell>
        <mxCell id="GXR5rZHoVhnLlK48RY9E-56" value="前置服务" style="rounded=0;whiteSpace=wrap;html=1;" vertex="1" parent="1c1d494c118603dd-3">
          <mxGeometry x="105" y="440" width="80" height="40" as="geometry" />
        </mxCell>
        <mxCell id="GXR5rZHoVhnLlK48RY9E-36" style="edgeStyle=orthogonalEdgeStyle;rounded=0;orthogonalLoop=1;jettySize=auto;html=1;exitX=1;exitY=0.5;exitDx=0;exitDy=0;entryX=0;entryY=0.5;entryDx=0;entryDy=0;" edge="1" parent="1c1d494c118603dd-2">
          <mxGeometry relative="1" as="geometry">
            <mxPoint x="160" y="130" as="sourcePoint" />
            <mxPoint x="390" y="130" as="targetPoint" />
          </mxGeometry>
        </mxCell>
        <mxCell id="GXR5rZHoVhnLlK48RY9E-37" value="请求token" style="edgeLabel;html=1;align=center;verticalAlign=middle;resizable=0;points=[];" vertex="1" connectable="0" parent="GXR5rZHoVhnLlK48RY9E-36">
          <mxGeometry x="-0.1007" relative="1" as="geometry">
            <mxPoint as="offset" />
          </mxGeometry>
        </mxCell>
        <mxCell id="GXR5rZHoVhnLlK48RY9E-66" style="edgeStyle=orthogonalEdgeStyle;rounded=0;orthogonalLoop=1;jettySize=auto;html=1;exitX=0;exitY=0.5;exitDx=0;exitDy=0;entryX=0;entryY=0.5;entryDx=0;entryDy=0;" edge="1" parent="1c1d494c118603dd-2" source="GXR5rZHoVhnLlK48RY9E-47" target="GXR5rZHoVhnLlK48RY9E-57">
          <mxGeometry relative="1" as="geometry" />
        </mxCell>
        <mxCell id="GXR5rZHoVhnLlK48RY9E-47" value="刷新token" style="rounded=0;whiteSpace=wrap;html=1;shadow=0;comic=0;labelBackgroundColor=none;strokeWidth=1;fontFamily=Verdana;fontSize=12;align=center;arcSize=50;" vertex="1" parent="1c1d494c118603dd-2">
          <mxGeometry x="80" y="240" width="80" height="40" as="geometry" />
        </mxCell>
        <mxCell id="GXR5rZHoVhnLlK48RY9E-55" style="edgeStyle=orthogonalEdgeStyle;rounded=0;orthogonalLoop=1;jettySize=auto;html=1;exitX=0;exitY=0.5;exitDx=0;exitDy=0;entryX=0.5;entryY=1;entryDx=0;entryDy=0;" edge="1" parent="1c1d494c118603dd-2" source="GXR5rZHoVhnLlK48RY9E-53" target="GXR5rZHoVhnLlK48RY9E-47">
          <mxGeometry relative="1" as="geometry" />
        </mxCell>
        <mxCell id="GXR5rZHoVhnLlK48RY9E-58" style="edgeStyle=orthogonalEdgeStyle;rounded=0;orthogonalLoop=1;jettySize=auto;html=1;exitX=1;exitY=0.5;exitDx=0;exitDy=0;entryX=0;entryY=0.5;entryDx=0;entryDy=0;" edge="1" parent="1c1d494c118603dd-2" source="GXR5rZHoVhnLlK48RY9E-57" target="GXR5rZHoVhnLlK48RY9E-56">
          <mxGeometry relative="1" as="geometry" />
        </mxCell>
        <mxCell id="GXR5rZHoVhnLlK48RY9E-60" value="请求" style="edgeLabel;html=1;align=center;verticalAlign=middle;resizable=0;points=[];" vertex="1" connectable="0" parent="GXR5rZHoVhnLlK48RY9E-58">
          <mxGeometry x="-0.2596" y="1" relative="1" as="geometry">
            <mxPoint as="offset" />
          </mxGeometry>
        </mxCell>
        <mxCell id="GXR5rZHoVhnLlK48RY9E-57" value="业务" style="rounded=0;whiteSpace=wrap;html=1;shadow=0;comic=0;labelBackgroundColor=none;strokeWidth=1;fontFamily=Verdana;fontSize=12;align=center;arcSize=50;" vertex="1" parent="1c1d494c118603dd-2">
          <mxGeometry x="80" y="440" width="80" height="40" as="geometry" />
        </mxCell>
        <mxCell id="GXR5rZHoVhnLlK48RY9E-59" style="edgeStyle=orthogonalEdgeStyle;rounded=0;orthogonalLoop=1;jettySize=auto;html=1;exitX=0.5;exitY=1;exitDx=0;exitDy=0;entryX=0.5;entryY=1;entryDx=0;entryDy=0;" edge="1" parent="1c1d494c118603dd-2" source="GXR5rZHoVhnLlK48RY9E-56" target="GXR5rZHoVhnLlK48RY9E-57">
          <mxGeometry relative="1" as="geometry" />
        </mxCell>
        <mxCell id="GXR5rZHoVhnLlK48RY9E-61" value="返回" style="edgeLabel;html=1;align=center;verticalAlign=middle;resizable=0;points=[];" vertex="1" connectable="0" parent="GXR5rZHoVhnLlK48RY9E-59">
          <mxGeometry x="-0.1568" y="-2" relative="1" as="geometry">
            <mxPoint as="offset" />
          </mxGeometry>
        </mxCell>
        <mxCell id="1c1d494c118603dd-4" value="昆船wms服务" style="swimlane;html=1;startSize=20;fillColor=#f5f5f5;fontColor=#333333;strokeColor=#666666;" parent="1" vertex="1">
          <mxGeometry x="620" y="40" width="250" height="580" as="geometry" />
        </mxCell>
        <mxCell id="GXR5rZHoVhnLlK48RY9E-62" value="服务器" style="rounded=0;whiteSpace=wrap;html=1;fillColor=#dae8fc;strokeColor=#6c8ebf;" vertex="1" parent="1c1d494c118603dd-4">
          <mxGeometry x="65" y="230" width="120" height="60" as="geometry" />
        </mxCell>
        <mxCell id="GXR5rZHoVhnLlK48RY9E-65" style="rounded=0;orthogonalLoop=1;jettySize=auto;html=1;exitX=0.5;exitY=1;exitDx=0;exitDy=0;entryX=1;entryY=0.5;entryDx=0;entryDy=0;edgeStyle=orthogonalEdgeStyle;shape=link;" edge="1" parent="1" source="GXR5rZHoVhnLlK48RY9E-62" target="GXR5rZHoVhnLlK48RY9E-56">
          <mxGeometry relative="1" as="geometry" />
        </mxCell>
      </root>
    </mxGraphModel>
  </diagram>
</mxfile>
